<?xml version="1.0" encoding="UTF-8" standalone="no"?>
<!-- Created with Inkscape (http://www.inkscape.org/) -->

<svg
   xmlns:dc="http://purl.org/dc/elements/1.1/"
   xmlns:cc="http://creativecommons.org/ns#"
   xmlns:rdf="http://www.w3.org/1999/02/22-rdf-syntax-ns#"
   xmlns:svg="http://www.w3.org/2000/svg"
   xmlns="http://www.w3.org/2000/svg"
   xmlns:sodipodi="http://sodipodi.sourceforge.net/DTD/sodipodi-0.dtd"
   xmlns:inkscape="http://www.inkscape.org/namespaces/inkscape"
   id="svg4302"
   version="1.1"
   inkscape:version="0.91 r13725"
   xml:space="preserve"
   width="1000"
   height="1000"
   viewBox="0 0 1000 1000"
   sodipodi:docname="bg4.svg"><metadata
     id="metadata4308"><rdf:RDF><cc:Work
         rdf:about=""><dc:format>image/svg+xml</dc:format><dc:type
           rdf:resource="http://purl.org/dc/dcmitype/StillImage" /><dc:title></dc:title></cc:Work></rdf:RDF></metadata><defs
     id="defs4306"><clipPath
       clipPathUnits="userSpaceOnUse"
       id="clipPath4316"><path
         d="m 0.138,0.508 799.725,0 0,798.985 -799.725,0 0,-798.985 z"
         id="path4318"
         inkscape:connector-curvature="0" /></clipPath><clipPath
       clipPathUnits="userSpaceOnUse"
       id="clipPath4324"><path
         d="m -11.4322,799.492 811.2952,0 0,-812.6644 -811.2952,0 0,812.6644 z"
         id="path4326"
         inkscape:connector-curvature="0" /></clipPath><clipPath
       clipPathUnits="userSpaceOnUse"
       id="clipPath4328"><path
         d="m -3.56845,799.492 803.43145,0 0,-803.42981 -803.43145,0 0,803.42981 z"
         id="path4330"
         inkscape:connector-curvature="0" /></clipPath><clipPath
       clipPathUnits="userSpaceOnUse"
       id="clipPath9980"><path
         d="m 0.137299,799.492 799.999701,0 0,-799.999706 -799.999701,0 0,799.999706 z"
         id="path9982"
         inkscape:connector-curvature="0" /></clipPath><clipPath
       clipPathUnits="userSpaceOnUse"
       id="clipPath9994"><path
         d="M 0,800 800,800 800,0 0,0 0,800 Z"
         id="path9996"
         inkscape:connector-curvature="0" /></clipPath><clipPath
       clipPathUnits="userSpaceOnUse"
       id="clipPath10106"><path
         d="M 0,800 800,800 800,0 0,0 0,800 Z"
         id="path10108"
         inkscape:connector-curvature="0" /></clipPath></defs><sodipodi:namedview
     pagecolor="#ffffff"
     bordercolor="#666666"
     borderopacity="1"
     objecttolerance="10"
     gridtolerance="10"
     guidetolerance="10"
     inkscape:pageopacity="0"
     inkscape:pageshadow="2"
     inkscape:window-width="1440"
     inkscape:window-height="801"
     id="namedview4304"
     showgrid="false"
     inkscape:zoom="0.56879688"
     inkscape:cx="500"
     inkscape:cy="500"
     inkscape:window-x="0"
     inkscape:window-y="1"
     inkscape:window-maximized="1"
     inkscape:current-layer="g4310" /><g
     id="g4310"
     inkscape:groupmode="layer"
     inkscape:label="07"
     transform="matrix(1.25,0,0,-1.25,0,1000)"><g
       id="g10102"><g
         id="g10104"
         clip-path="url(#clipPath10106)"><g
           id="g10110"
           transform="translate(373.1428,359.3758)"><path
             d="m 0,0 c -11.122,3.034 -22.498,5.396 -33.698,7.228 -0.935,0.153 -1.356,-1.192 -0.4,-1.451 11.141,-3.02 22.3,-6.15 33.484,-9.129 -2.123,-9.852 -6.568,-19.084 -12.48,-27.23 -14.085,-19.413 -35.654,-31.091 -57.648,-39.369 -0.41,-0.155 -0.73,-0.385 -0.983,-0.656 -0.662,-0.141 -1.324,-0.282 -1.987,-0.418 -0.004,0.016 -0.01,0.032 -0.031,0.032 -0.028,0 -0.037,-0.022 -0.033,-0.044 -20.643,-4.206 -41.647,-5.684 -62.238,0.127 -17.885,5.047 -34.685,15.534 -45.746,30.641 -12.461,17.022 -15.677,38.358 -16.007,58.961 -0.167,10.402 -0.029,21.054 2.415,31.217 2.79,11.604 9.298,21.124 16.649,30.313 3.537,4.422 7.153,8.84 11.072,12.947 2.033,-2.877 4.148,-5.694 6.241,-8.469 1.305,-1.729 3.806,-1.549 4.559,0.596 2.23,6.344 4.601,12.62 7.119,18.833 8.849,-0.592 17.74,-0.633 26.552,-0.222 1.782,0.083 3.308,2.123 2.177,3.793 -1.941,2.866 -3.912,5.711 -5.879,8.558 18.853,4.883 39.845,5.591 58.618,0.826 17.164,-4.357 32.952,-13.823 44.921,-26.869 13.664,-14.894 19.588,-32.751 22.009,-52.529 0.456,-3.724 0.935,-7.496 1.33,-11.287 -11.625,-3.248 -23.207,-6.603 -35.012,-9.223 -1.635,-0.363 -0.938,-2.833 0.69,-2.502 11.636,2.368 23.307,5.023 34.617,8.721 C 1.017,15.573 1.223,7.696 0,0 m -51.233,-113.684 c -2.144,-15.035 -5.28,-29.914 -7.208,-44.981 -3.393,-26.516 -3.014,-54.903 11.626,-78.245 0.815,-1.299 2.645,-1.604 3.763,-0.485 2.223,2.226 6.433,2.426 8.678,-0.05 3.912,-4.315 -2.335,-9.599 -6.788,-8.283 -1.082,0.32 -1.93,-0.092 -2.432,-0.783 -0.246,-0.001 -0.489,0.001 -0.724,0.027 -0.467,0.051 -0.978,0.105 -1.485,0.186 0.279,2.896 -1.227,5.542 -3.32,7.513 -4.329,4.076 -8.903,5.842 -11.445,11.712 -4.727,10.917 -5.7,24.783 -6.669,36.497 -1.095,13.259 -0.506,26.491 3.154,39.335 0.812,2.849 -3.611,4.062 -4.43,1.222 -5.952,-20.624 -4.088,-42.056 -0.465,-62.923 1.423,-8.195 2.781,-17.603 9.076,-23.677 2.972,-2.868 14.001,-7.199 6.906,-12.529 -3.952,-2.97 -11.089,-1.214 -15.82,-2.122 0.165,0.954 0.208,2.013 0.072,3.211 -0.934,8.228 -9.522,10.202 -16.504,10.922 1.171,6.598 -0.837,13.406 -4.896,18.712 -3.328,4.351 -11.012,11.322 -17.007,9.32 -1.199,-0.4 -1.841,-2.033 -0.787,-2.979 1.879,-1.685 3.939,-1.875 6.211,-3.008 2.657,-1.325 4.999,-3.216 6.936,-5.462 4.241,-4.919 6.003,-10.854 6.074,-17.248 0.002,-0.251 0.062,-0.474 0.157,-0.672 -0.387,-1.342 0.334,-3.147 2.17,-3.305 3.696,-0.318 8.957,-0.607 11.603,-3.661 0.905,-1.045 2.179,-4.148 1.184,-5.525 -2.118,-2.931 -6.215,-1.301 -8.913,-0.744 -7.705,1.589 -15.657,1.664 -23.391,0.219 -7.581,-1.415 -15.082,-4.775 -22.896,-4.577 -9.708,0.245 -14.35,7.857 -15.369,16.689 -1.444,12.522 0.98,25.305 4.263,37.671 0.835,1.902 1.349,3.808 1.572,5.705 0.973,3.418 1.975,6.796 2.944,10.117 5.242,17.969 10.499,35.933 15.758,53.896 5.242,17.908 11.024,35.606 19.261,52.375 11.162,0.385 22.222,2.16 32.564,5.216 0.509,0.151 0.884,0.414 1.145,0.736 5.734,2.148 11.412,4.573 16.931,7.314 1.335,-15.863 0.755,-31.529 -1.499,-47.336 M -199.032,92.134 c -0.59,1.561 0.133,2.454 2.169,2.679 0.948,0.08 1.897,0.127 2.848,0.14 1.903,0.049 3.801,10e-4 5.698,-0.154 4.44,-0.361 8.644,-1.375 12.864,-2.724 -5.4,-6.066 -10.685,-12.523 -15.137,-19.331 -3.002,2.833 -8.772,17.275 -8.442,19.39 m 138.843,41.371 c 1.802,0.909 2.801,1.773 4.361,0.19 0.905,-0.919 1.623,-4.444 1.921,-5.829 0.765,-3.556 0.339,-6.952 0.445,-10.493 -6.4,2.689 -13.045,4.607 -19.819,5.87 3.979,3.973 7.932,7.659 13.092,10.262 M 18.979,-5.973 c -4.736,1.715 -9.579,3.264 -14.476,4.692 1.166,6.671 1.519,13.596 1.05,20.746 -0.122,1.861 -0.259,3.726 -0.404,5.594 2.068,0.741 4.125,1.512 6.162,2.336 1.172,0.475 0.755,2.291 -0.537,1.948 -1.95,-0.517 -3.897,-1.046 -5.841,-1.58 -1.646,19.178 -5.061,38.442 -15.859,54.727 -9.546,14.397 -23.248,25.91 -38.857,33.251 0.103,0.151 0.196,0.315 0.266,0.506 1.631,4.477 0.924,9.964 -0.412,14.461 -0.96,3.229 -2.45,8.249 -6.499,8.497 -3.645,0.224 -7.999,-3.169 -10.72,-5.199 -3.73,-2.782 -7.217,-6.147 -9.609,-10.167 -13.301,2.03 -27.018,1.617 -40.29,-0.459 -4.351,-0.681 -8.628,-1.609 -12.815,-2.77 -2.744,3.935 -5.511,7.855 -8.306,11.756 -1.012,1.413 -3.433,1.839 -4.349,0 -3.433,-6.891 -6.665,-13.885 -9.681,-20.971 -0.89,-0.508 -1.774,-1.028 -2.647,-1.568 -5.766,0.545 -11.53,1.268 -17.317,2.148 -2.585,0.393 -3.982,-2.787 -2.489,-4.194 -0.619,-0.609 -0.948,-1.578 -0.503,-2.451 1.388,-2.722 2.964,-5.364 4.649,-7.948 -0.651,-0.658 -1.306,-1.311 -1.939,-1.995 -0.258,0.484 -0.688,0.896 -1.336,1.121 -7.386,2.567 -15.273,3.687 -23.083,3.064 -5.568,-0.445 -7.588,-2.699 -6.828,-8.388 0.865,-6.473 3.39,-12.791 7.492,-17.9 1.009,-1.256 2.387,-2.696 3.817,-3.393 -0.275,-0.452 -0.565,-0.898 -0.832,-1.352 -5.742,-9.793 -8.297,-20.66 -9.17,-31.9 -1.707,-21.95 -0.508,-46.082 8.685,-66.394 15.88,-35.086 52.793,-50.112 89.361,-49.943 -10.611,-17.178 -15.796,-37.057 -21.428,-56.318 -4.704,-16.09 -9.9,-32.166 -14.429,-48.376 -4.427,10.593 -15.304,20.048 -23.544,25.966 -15.765,11.323 -38.132,15.926 -54.572,3.286 -12.799,-9.841 -21.159,-31.499 -6.171,-43.28 13.021,-10.234 32.927,-1.525 33.784,15.29 0.408,8.01 -4.947,16.697 -13.861,15.582 -8.651,-1.082 -12.503,-10.555 -8.208,-17.774 1.622,-2.726 5.715,-0.314 4.241,2.479 -2.999,5.682 2.153,13.097 8.572,9.584 4.161,-2.277 4.835,-8.233 3.814,-12.329 -1.988,-7.97 -10.131,-13.917 -18.363,-12.146 -20.611,4.434 -12.638,29.709 -0.5,38.829 14.317,10.757 33.417,6.658 47.282,-2.673 9.881,-6.65 23.51,-18.407 25.215,-31.366 -1.176,-4.5 -2.306,-9.007 -3.32,-13.535 -3.22,-14.379 -8.906,-40.582 5.85,-50.916 6.799,-4.762 15.348,-3.52 22.918,-1.686 12.597,3.053 23.48,5.057 36.391,2.113 4.567,-1.041 8.93,-0.18 10.906,3.052 0.275,-0.392 0.712,-0.661 1.29,-0.637 6.616,0.272 18.202,-2.378 21.801,5.213 0.502,-0.286 1.031,-0.535 1.65,-0.684 0.753,-0.181 1.581,-0.279 2.378,-0.217 0.072,-0.029 0.134,-0.065 0.211,-0.089 7.527,-2.342 16.642,5.121 13.309,13.187 -2.424,5.862 -9.663,7.581 -14.867,4.884 -13.585,23.992 -12.653,52.782 -8.688,79.321 4.291,28.718 13.043,59.31 6.298,88.31 12.045,6.362 23.182,14.365 32.173,24.664 9.271,10.618 15.26,22.518 18.077,35.428 4.825,-1.265 9.656,-2.498 14.492,-3.671 1.466,-0.356 2.005,1.731 0.616,2.234"
             style="fill:#575756;fill-opacity:1;fill-rule:nonzero;stroke:none"
             id="path10112"
             inkscape:connector-curvature="0" /></g><g
           id="g10114"
           transform="translate(339.1043,349.9092)"><path
             d="m 0,0 c -0.231,-4.68 -2.793,-11.328 -8.618,-7.763 -4.025,2.464 -4.93,7.342 -5.363,11.866 0.61,0.423 1.131,1.027 1.579,1.857 2.871,5.312 4.202,11.433 4.6,17.409 0.082,1.246 -1.229,2.68 -2.522,2.522 -3.886,-0.475 -7.774,-0.945 -11.66,-1.425 -2.34,-0.289 -5.943,-0.06 -7.613,-2.102 -3.525,-4.309 3.646,-12.622 6.657,-15.378 0.493,-0.45 1.013,-0.636 1.503,-0.642 0.359,-1.181 1.255,-1.957 2.359,-2.421 0.119,-1.37 0.246,-2.739 0.364,-4.109 0.255,-2.944 1.419,-7.229 -0.202,-9.825 -1.726,-2.765 -5.71,-4.19 -8.807,-3.243 -4.431,1.355 -3.332,4.142 -3.7,7.662 -0.136,1.303 -1.398,2.228 -2.652,1.521 -3.7,-2.084 -2.804,-7.168 -0.698,-10.2 2.63,-3.789 7.456,-5.011 11.821,-3.981 4.024,0.949 8.309,3.699 9.461,7.895 0.02,0.073 0.029,0.148 0.047,0.221 1.285,-1.349 2.944,-2.427 5.103,-3.086 C 0.243,-15.843 4.88,-7.342 4.951,0 4.982,3.201 0.156,3.168 0,0"
             style="fill:#575756;fill-opacity:1;fill-rule:nonzero;stroke:none"
             id="path10116"
             inkscape:connector-curvature="0" /></g><g
           id="g10118"
           transform="translate(290.4818,384.1672)"><path
             d="m 0,0 c -2.133,2.73 -5.363,4.64 -8.87,4.794 -6.619,0.289 -12.572,-6.651 -10.069,-13.119 0.935,-2.416 4.438,-1.519 3.915,1.079 -0.668,3.32 1.653,6.833 5.124,7.176 1.706,0.168 3.416,-0.49 4.729,-1.574 0.521,-0.43 2.502,-2.505 2.76,-3.503 -0.055,-0.082 -0.11,-0.165 -0.166,-0.248 -0.405,-0.606 -0.43,-1.641 0,-2.244 0.055,-0.077 0.109,-0.153 0.163,-0.229 0.92,-1.288 2.468,-1.528 3.686,-0.475 C 3.861,-6.105 1.693,-2.166 0,0"
             style="fill:#575756;fill-opacity:1;fill-rule:nonzero;stroke:none"
             id="path10120"
             inkscape:connector-curvature="0" /></g><g
           id="g10122"
           transform="translate(343.3863,402.0232)"><path
             d="m 0,0 c -6.039,-2.075 -8.423,-9.964 -4.529,-14.929 1.044,-1.331 3.498,0.114 2.88,1.677 -1.174,2.964 -0.488,6.923 2.557,8.54 4.05,2.152 7.703,-2.32 7.508,-6.058 -0.137,-2.605 4.228,-3.278 4.629,-0.627 C 14.111,-4.344 7.069,2.429 0,0"
             style="fill:#575756;fill-opacity:1;fill-rule:nonzero;stroke:none"
             id="path10124"
             inkscape:connector-curvature="0" /></g><g
           id="g10126"
           transform="translate(299.386,366.6672)"><path
             d="m 0,0 c -16.103,-4.545 -32.124,-9.218 -48.392,-13.16 -1.246,-0.302 -0.7,-2.098 0.521,-1.891 16.478,2.79 32.86,7.039 48.313,13.447 C 1.399,-1.207 1.063,0.3 0,0"
             style="fill:#575756;fill-opacity:1;fill-rule:nonzero;stroke:none"
             id="path10128"
             inkscape:connector-curvature="0" /></g><g
           id="g10130"
           transform="translate(297.6151,360.5645)"><path
             d="m 0,0 c -9.245,-3.805 -17.971,-9.102 -26.619,-14.08 -1.211,-0.697 -0.141,-2.497 1.09,-1.864 8.797,4.525 17.954,8.948 26.094,14.605 C 1.193,-0.903 0.821,0.338 0,0"
             style="fill:#575756;fill-opacity:1;fill-rule:nonzero;stroke:none"
             id="path10132"
             inkscape:connector-curvature="0" /></g><g
           id="g10134"
           transform="translate(300.9233,356.2891)"><path
             d="m 0,0 c -5.605,-2.98 -10.541,-7.489 -15.381,-11.556 -5.396,-4.534 -10.527,-9.281 -15.287,-14.481 -0.914,-0.999 0.456,-2.33 1.471,-1.471 5.101,4.32 10.056,8.793 15.073,13.208 4.955,4.36 10.533,8.305 15,13.165 C 1.432,-0.53 0.734,0.39 0,0"
             style="fill:#575756;fill-opacity:1;fill-rule:nonzero;stroke:none"
             id="path10136"
             inkscape:connector-curvature="0" /></g><g
           id="g10138"
           transform="translate(373.0102,373.4478)"><path
             d="m 0,0 c -10.292,-0.858 -20.466,-1.772 -30.798,-2.041 -1.518,-0.039 -1.517,-2.305 0,-2.357 10.331,-0.347 20.941,0.245 31.066,2.414 C 1.366,-1.749 1.143,0.095 0,0"
             style="fill:#575756;fill-opacity:1;fill-rule:nonzero;stroke:none"
             id="path10140"
             inkscape:connector-curvature="0" /></g><g
           id="g10142"
           transform="translate(587.6429,119.9976)"><path
             d="m 0,0 c -1.018,-8.832 -5.661,-16.444 -15.369,-16.689 -7.813,-0.198 -15.315,3.162 -22.895,4.578 -7.735,1.444 -15.687,1.369 -23.392,-0.22 -2.698,-0.556 -6.794,-2.187 -8.913,0.744 -0.995,1.377 0.279,4.48 1.184,5.525 2.646,3.055 7.907,3.343 11.603,3.661 1.836,0.158 2.557,1.963 2.17,3.305 0.095,0.198 0.155,0.421 0.158,0.673 0.07,6.393 1.832,12.328 6.073,17.247 1.937,2.247 4.279,4.137 6.936,5.462 2.272,1.133 4.332,1.323 6.211,3.008 1.054,0.946 0.412,2.579 -0.787,2.98 -5.994,2.001 -13.679,-4.97 -17.007,-9.321 -4.059,-5.305 -6.066,-12.114 -4.896,-18.712 -6.982,-0.719 -15.57,-2.693 -16.504,-10.922 -0.136,-1.198 -0.093,-2.257 0.072,-3.211 -4.731,0.908 -11.868,-0.847 -15.82,2.122 -7.095,5.331 3.934,9.661 6.907,12.53 6.294,6.074 7.653,15.481 9.075,23.676 3.623,20.867 5.487,42.299 -0.464,62.923 -0.82,2.84 -5.243,1.628 -4.431,-1.222 3.66,-12.844 4.25,-26.076 3.154,-39.335 -0.968,-11.714 -1.942,-25.58 -6.669,-36.496 -2.542,-5.871 -7.115,-7.637 -11.444,-11.713 -2.094,-1.971 -3.6,-4.617 -3.321,-7.513 -0.507,-0.08 -1.017,-0.135 -1.485,-0.186 -0.234,-0.026 -0.478,-0.028 -0.724,-0.027 -0.502,0.692 -1.35,1.104 -2.432,0.784 -4.452,-1.317 -10.7,3.967 -6.787,8.282 2.244,2.476 6.454,2.276 8.677,0.051 1.118,-1.12 2.948,-0.815 3.764,0.485 14.639,23.341 15.018,51.728 11.625,78.245 -1.928,15.066 -5.063,29.946 -7.208,44.98 -1.321,9.264 -2.049,18.48 -2.171,27.715 1.382,0.99 2.533,1.854 3.254,2.314 2.539,1.619 5.127,3.148 7.746,4.615 4.307,-4.865 8.775,-9.578 13.474,-14.069 2.192,-2.096 6.257,-7.563 9.918,-5.131 3.475,2.309 4.583,11.198 5.427,14.871 0.347,1.512 0.651,3.031 0.921,4.554 3.502,-0.399 7.03,-0.677 10.573,-0.799 8.237,-16.768 14.018,-34.467 19.261,-52.375 5.258,-17.963 10.515,-35.927 15.757,-53.895 0.969,-3.321 1.971,-6.7 2.944,-10.118 0.223,-1.897 0.737,-3.803 1.572,-5.705 C -0.98,25.305 1.444,12.522 0,0 m -131.078,208.796 c -5.911,8.146 -10.356,17.378 -12.479,27.231 11.183,2.979 22.342,6.108 33.484,9.128 0.955,0.259 0.534,1.604 -0.401,1.451 -11.2,-1.832 -22.575,-4.194 -33.698,-7.228 -1.223,7.697 -1.017,15.573 -0.311,23.395 11.311,-3.697 22.982,-6.353 34.617,-8.721 1.629,-0.331 2.325,2.139 0.69,2.502 -11.804,2.62 -23.387,5.975 -35.012,9.223 0.396,3.791 0.874,7.564 1.33,11.287 2.422,19.778 8.345,37.636 22.009,52.53 11.969,13.046 27.757,22.511 44.922,26.868 20.153,5.116 42.865,3.929 62.741,-1.964 9.402,-2.788 18.438,-6.949 26.366,-12.759 8.323,-6.099 14.947,-14.132 21.352,-22.138 7.351,-9.19 13.858,-18.71 16.649,-30.314 2.444,-10.163 2.581,-20.815 2.414,-31.217 -0.33,-20.603 -3.546,-41.939 -16.007,-58.961 -11.06,-15.107 -27.861,-25.593 -45.745,-30.641 -15.031,-4.242 -30.281,-4.589 -45.45,-2.838 0.41,3.317 0.658,6.654 0.763,10.004 0.049,1.571 -1.647,2.915 -3.168,2.414 -6.685,-2.201 -13.225,-4.808 -19.592,-7.78 -4.975,1.927 -9.915,4.034 -14.741,6.376 -0.805,0.9 -1.637,1.773 -2.505,2.597 -2.262,2.148 -6.636,6.815 -10.129,5.445 -0.343,-0.135 -0.652,-0.331 -0.947,-0.552 -10.415,6.532 -19.806,14.538 -27.152,24.662 m 40.813,158.449 c 0.298,1.384 1.016,4.909 1.922,5.828 1.56,1.583 2.558,0.719 4.36,-0.19 5.16,-2.603 9.113,-6.289 13.092,-10.262 -6.774,-1.262 -13.419,-3.181 -19.818,-5.87 0.105,3.541 -0.321,6.937 0.444,10.494 m 134.41,-33.067 c 1.898,0.154 3.795,0.202 5.698,0.153 0.951,-0.013 1.901,-0.06 2.848,-0.14 2.036,-0.224 2.759,-1.117 2.169,-2.679 0.33,-2.115 -5.44,-16.557 -8.442,-19.39 -4.451,6.808 -9.736,13.265 -15.136,19.331 4.219,1.349 8.424,2.363 12.863,2.725 M 74.14,84.238 C 57.699,96.879 35.332,92.275 19.567,80.953 11.327,75.035 0.45,65.579 -3.976,54.986 c -4.529,16.21 -9.726,32.287 -14.43,48.376 -5.632,19.262 -10.817,39.141 -21.427,56.318 36.567,-0.169 73.48,14.857 89.36,49.944 9.193,20.311 10.392,44.443 8.686,66.393 -0.874,11.24 -3.429,22.107 -9.171,31.9 -0.267,0.454 -0.557,0.901 -0.832,1.352 1.431,0.697 2.808,2.137 3.817,3.393 4.102,5.109 6.628,11.427 7.493,17.9 0.76,5.69 -1.26,7.943 -6.829,8.388 -7.81,0.623 -15.696,-0.497 -23.082,-3.064 -0.649,-0.225 -1.079,-0.636 -1.337,-1.121 -14.66,15.832 -34.225,24.681 -55.397,27.993 -13.272,2.077 -26.989,2.489 -40.29,0.459 -2.392,4.02 -5.878,7.385 -9.608,10.167 -2.722,2.03 -7.076,5.423 -10.721,5.199 -4.049,-0.248 -5.539,-5.267 -6.498,-8.497 -1.336,-4.497 -2.044,-9.984 -0.413,-14.46 0.07,-0.192 0.163,-0.356 0.266,-0.507 -15.609,-7.34 -29.31,-18.854 -38.857,-33.251 -10.798,-16.285 -14.213,-35.549 -15.859,-54.727 -1.944,0.535 -3.89,1.063 -5.841,1.581 -1.291,0.343 -1.709,-1.474 -0.536,-1.948 2.037,-0.825 4.093,-1.596 6.162,-2.337 -0.146,-1.867 -0.283,-3.733 -0.404,-5.594 -0.469,-7.15 -0.117,-14.075 1.049,-20.746 -4.897,-1.428 -9.739,-2.977 -14.475,-4.692 -1.389,-0.503 -0.851,-2.59 0.615,-2.234 4.837,1.173 9.667,2.407 14.492,3.672 2.817,-12.911 8.806,-24.811 18.077,-35.429 6.761,-7.744 14.736,-14.189 23.397,-19.615 -0.985,-3.042 -1.321,-6.687 -1.752,-8.763 -1.172,-5.641 -3.056,-12.886 -2.365,-18.658 0.756,-6.326 5.697,-5.014 10.436,-2.328 0.272,-21.313 5.668,-42.946 8.755,-63.61 3.965,-26.539 4.897,-55.329 -8.687,-79.321 -5.204,2.697 -12.444,0.978 -14.867,-4.884 -3.334,-8.065 5.781,-15.528 13.308,-13.187 0.077,0.024 0.14,0.061 0.211,0.089 0.797,-0.062 1.625,0.036 2.378,0.218 0.619,0.148 1.148,0.397 1.65,0.684 3.599,-7.591 15.185,-4.941 21.802,-5.214 0.577,-0.024 1.014,0.245 1.29,0.637 1.976,-3.232 6.338,-4.093 10.905,-3.051 12.911,2.943 23.794,0.939 36.391,-2.114 7.57,-1.834 16.119,-3.076 22.919,1.686 C 10.56,-7.683 4.875,18.52 1.654,32.899 0.64,37.427 -0.49,41.935 -1.666,46.434 0.039,59.394 13.668,71.15 23.549,77.8 37.415,87.131 56.514,91.23 70.831,80.473 82.969,71.353 90.942,46.078 70.332,41.644 62.099,39.873 53.956,45.82 51.969,53.79 c -1.022,4.096 -0.348,10.052 3.814,12.33 6.418,3.512 11.57,-3.902 8.571,-9.585 -1.473,-2.792 2.619,-5.205 4.241,-2.479 4.295,7.219 0.443,16.692 -8.207,17.774 C 51.473,72.945 46.118,64.258 46.526,56.248 47.383,39.433 67.29,30.724 80.311,40.959 95.299,52.739 86.939,74.398 74.14,84.238"
             style="fill:#575756;fill-opacity:1;fill-rule:nonzero;stroke:none"
             id="path10144"
             inkscape:connector-curvature="0" /></g><g
           id="g10146"
           transform="translate(477.5096,349.9092)"><path
             d="m 0,0 c 0.231,-4.68 2.793,-11.328 8.618,-7.763 4.025,2.464 4.93,7.342 5.363,11.866 -0.61,0.423 -1.131,1.027 -1.579,1.857 -2.871,5.312 -4.202,11.433 -4.6,17.409 -0.082,1.246 1.229,2.68 2.522,2.522 3.886,-0.475 7.774,-0.945 11.66,-1.425 2.34,-0.289 5.943,-0.06 7.613,-2.102 C 33.122,18.055 25.951,9.742 22.94,6.986 22.447,6.536 21.927,6.35 21.437,6.344 21.078,5.163 20.182,4.387 19.078,3.923 18.959,2.553 18.832,1.184 18.714,-0.186 c -0.255,-2.944 -1.419,-7.229 0.202,-9.825 1.726,-2.765 5.71,-4.19 8.807,-3.243 4.431,1.355 3.332,4.142 3.7,7.662 0.136,1.303 1.398,2.228 2.652,1.521 3.7,-2.084 2.804,-7.168 0.698,-10.2 -2.63,-3.789 -7.456,-5.011 -11.821,-3.981 -4.024,0.949 -8.309,3.699 -9.461,7.895 -0.02,0.073 -0.029,0.148 -0.047,0.221 C 12.159,-11.485 10.5,-12.563 8.341,-13.222 -0.243,-15.843 -4.88,-7.342 -4.951,0 -4.982,3.201 -0.156,3.168 0,0"
             style="fill:#575756;fill-opacity:1;fill-rule:nonzero;stroke:none"
             id="path10148"
             inkscape:connector-curvature="0" /></g><g
           id="g10150"
           transform="translate(526.1321,384.1672)"><path
             d="m 0,0 c 2.133,2.73 5.363,4.64 8.87,4.794 6.619,0.289 12.572,-6.651 10.069,-13.119 -0.935,-2.416 -4.438,-1.519 -3.915,1.079 0.668,3.32 -1.653,6.833 -5.124,7.176 C 8.194,0.098 6.484,-0.56 5.171,-1.644 4.65,-2.074 2.669,-4.149 2.411,-5.147 c 0.055,-0.082 0.11,-0.165 0.166,-0.248 0.405,-0.606 0.43,-1.641 0,-2.244 C 2.522,-7.716 2.468,-7.792 2.414,-7.868 1.494,-9.156 -0.054,-9.396 -1.272,-8.343 -3.861,-6.105 -1.693,-2.166 0,0"
             style="fill:#575756;fill-opacity:1;fill-rule:nonzero;stroke:none"
             id="path10152"
             inkscape:connector-curvature="0" /></g><g
           id="g10154"
           transform="translate(473.2276,402.0232)"><path
             d="m 0,0 c 6.039,-2.075 8.423,-9.964 4.529,-14.929 -1.044,-1.331 -3.498,0.114 -2.88,1.677 1.174,2.964 0.488,6.923 -2.557,8.54 -4.05,2.152 -7.703,-2.32 -7.508,-6.058 0.137,-2.605 -4.228,-3.278 -4.629,-0.627 C -14.111,-4.344 -7.069,2.429 0,0"
             style="fill:#575756;fill-opacity:1;fill-rule:nonzero;stroke:none"
             id="path10156"
             inkscape:connector-curvature="0" /></g><g
           id="g10158"
           transform="translate(517.2279,366.6672)"><path
             d="m 0,0 c 16.103,-4.545 32.124,-9.218 48.392,-13.16 1.246,-0.302 0.7,-2.098 -0.521,-1.891 -16.478,2.79 -32.86,7.039 -48.313,13.447 C -1.399,-1.207 -1.063,0.3 0,0"
             style="fill:#575756;fill-opacity:1;fill-rule:nonzero;stroke:none"
             id="path10160"
             inkscape:connector-curvature="0" /></g><g
           id="g10162"
           transform="translate(518.9988,360.5645)"><path
             d="m 0,0 c 9.245,-3.805 17.971,-9.102 26.619,-14.08 1.211,-0.697 0.141,-2.497 -1.09,-1.864 C 16.732,-11.419 7.575,-6.996 -0.565,-1.339 -1.193,-0.903 -0.821,0.338 0,0"
             style="fill:#575756;fill-opacity:1;fill-rule:nonzero;stroke:none"
             id="path10164"
             inkscape:connector-curvature="0" /></g><g
           id="g10166"
           transform="translate(515.6906,356.2891)"><path
             d="m 0,0 c 5.605,-2.98 10.541,-7.489 15.381,-11.556 5.396,-4.534 10.527,-9.281 15.287,-14.481 0.914,-0.999 -0.456,-2.33 -1.471,-1.471 -5.101,4.32 -10.056,8.793 -15.073,13.208 -4.955,4.36 -10.533,8.305 -15,13.165 C -1.432,-0.53 -0.734,0.39 0,0"
             style="fill:#575756;fill-opacity:1;fill-rule:nonzero;stroke:none"
             id="path10168"
             inkscape:connector-curvature="0" /></g><g
           id="g10170"
           transform="translate(443.6037,373.4478)"><path
             d="m 0,0 c 10.292,-0.858 20.466,-1.772 30.798,-2.041 1.518,-0.039 1.517,-2.305 0,-2.357 C 20.467,-4.745 9.857,-4.153 -0.268,-1.984 -1.366,-1.749 -1.143,0.095 0,0"
             style="fill:#575756;fill-opacity:1;fill-rule:nonzero;stroke:none"
             id="path10172"
             inkscape:connector-curvature="0" /></g><g
           id="g10174"
           transform="translate(447.9917,633.1599)"><path
             d="M 0,0 C -0.843,1.399 -1.805,2.593 -2.853,3.611 -2.968,4.216 -3.114,4.816 -3.318,5.403 -1.765,3.829 -0.584,1.871 0.187,-0.354 0.119,-0.236 0.071,-0.118 0,0 m -36.636,-1.803 c -0.366,-0.115 -0.723,-0.205 -1.102,-0.354 -0.106,-0.041 -0.206,-0.093 -0.312,-0.136 1.351,1.146 2.748,2.241 4.185,3.258 -0.968,-0.874 -1.894,-1.799 -2.771,-2.768 M 18.376,6.819 C 5.513,44.585 -42.819,27.291 -62.029,0.473 c -7.067,9.824 -14.806,18.651 -28.653,19.042 -18.695,0.528 -25.756,-15.594 -23.615,-31.947 2.282,-17.422 9.222,-34.12 19.647,-48.247 9.716,-13.166 25.244,-29.277 42.329,-31.579 4.213,-0.568 8.161,2.284 8.904,5.85 7.946,4.022 12.743,14.055 19.501,19.987 8.549,7.502 18.138,13.772 26.231,21.804 13.633,13.531 22.596,32.249 16.061,51.436"
             style="fill:#f077ab;fill-opacity:1;fill-rule:nonzero;stroke:none"
             id="path10176"
             inkscape:connector-curvature="0" /></g><g
           id="g10178"
           transform="translate(463.96,630.0972)"><path
             d="m 0,0 c -3.38,-19.563 -20.101,-32.488 -35.428,-43.061 -16.068,-11.085 -32.288,-21.958 -48.433,-32.93 -0.836,-0.567 -1.384,-1.272 -1.733,-2.027 -22.443,18.43 -43.886,38.6 -48.442,69.066 -2.421,16.184 0.888,38.526 21.832,37.316 18.262,-1.055 27.078,-19.098 30.501,-34.754 1.207,-5.522 9.269,-3.985 9.511,1.287 0.8,17.498 17.906,37.908 35.343,41.49 C -14.915,40.894 3.712,21.483 0,0 M 6.731,22.487 C -1.843,41.699 -24.327,51.512 -44.237,44.304 -58.399,39.177 -71.228,26.522 -77.626,12.03 c -5.475,11.824 -14.362,21.878 -27.698,25.044 -16.852,4.002 -32.838,-4.679 -37.449,-21.554 -11.723,-42.9 25.356,-85.785 59.453,-105.923 2.247,-1.327 4.785,0.023 5.833,1.98 0.645,0.061 1.273,0.337 1.789,0.93 3.652,4.204 7.556,8.177 11.598,12.007 1.53,1.45 3.495,2.86 5.408,4.343 16.49,10.6 33.166,21.391 47.328,34.418 16.12,14.829 27.738,37.606 18.095,59.212"
             style="fill:#575756;fill-opacity:1;fill-rule:nonzero;stroke:none"
             id="path10180"
             inkscape:connector-curvature="0" /></g></g></g></g></svg>